<svg xmlns="http://www.w3.org/2000/svg" version="1.1" xmlns:xlink="http://www.w3.org/1999/xlink" xmlns:svgjs="http://svgjs.dev/svgjs" width="1500" height="935" viewBox="0 0 1500 935"><g transform="matrix(1,0,0,1,-0.9090909090908781,0.3785425101214628)">
<svg viewBox="0 0 396 247" data-background-color="#853439" preserveAspectRatio="xMidYMid meet" height="935" width="1500" xmlns="http://www.w3.org/2000/svg" xmlns:xlink="http://www.w3.org/1999/xlink"><g id="tight-bounds" transform="matrix(1,0,0,1,0.2400000000000091,-0.09999999999999432)">
<svg viewBox="0 0 395.52 247.2" height="247.2" width="395.52"><g><svg>
</svg></g><g><svg viewBox="0 0 395.52 247.2" height="247.2" width="395.52"><g transform="matrix(1,0,0,1,75.54432,84.91917161471021)">
<svg viewBox="0 0 244.43135999999998 77.36165677057957" height="77.36165677057957" width="244.43135999999998"><g>
<svg viewBox="0 0 244.43135999999998 77.36165677057957" height="77.36165677057957" width="244.43135999999998"><g>
<svg viewBox="0 0 244.43135999999998 77.36165677057957" height="77.36165677057957" width="244.43135999999998"><g>
<svg viewBox="0 0 244.43135999999998 77.36165677057957" height="77.36165677057957" width="244.43135999999998"><g id="textblocktransform">
<svg viewBox="0 0 244.43135999999998 77.36165677057957" height="77.36165677057957" width="244.43135999999998" id="textblock">
<g>
<svg viewBox="0 0 244.43135999999998 43.64136175562178" height="43.64136175562178" width="244.43135999999998">
<g transform="matrix(1,0,0,1,0,0)">
<svg width="244.43135999999998" viewBox="2.15 -32.25 184.53 32.95" height="43.64136175562178" data-palette-color="#fe5e30">
<path d="M12.2 0.65L12.2 0.65Q7.45 0.65 5.18-0.88 2.9-2.4 2.9-6.6L2.9-6.6Q2.9-7.45 3.03-8.65 3.15-9.85 3.4-11.55L3.4-11.55Q3.8-14 4-15.93 4.2-17.85 4.2-20.15L4.2-20.15Q4.2-21.65 4.13-23.05 4.05-24.45 3.85-25.7L3.85-25.7Q3.1-25.55 2.85-25.55L2.85-25.55Q2.45-25.55 2.3-25.73 2.15-25.9 2.15-26.4L2.15-26.4Q2.15-27.45 2.4-28.48 2.65-29.5 3.1-30.15L3.1-30.15Q3.95-31.35 5.7-31.55L5.7-31.55Q7.05-31.7 9.03-31.85 11-32 13.08-32.08 15.15-32.15 16.8-32.15L16.8-32.15Q21.4-32.15 22.25-31.95L22.25-31.95Q23.55-31.75 23.55-30.55L23.55-30.55Q23.55-29.05 22.5-27.8L22.5-27.8Q21.95-27.05 21.4-26.73 20.85-26.4 19.85-26.45L19.85-26.45Q17.65-26.6 16-26.65 14.35-26.7 13.7-26.7L13.7-26.7Q12.55-26.7 11.33-26.65 10.1-26.6 8.85-26.5L8.85-26.5Q8.85-24.75 8.7-22.75 8.55-20.75 8.3-18.55L8.3-18.55Q10.6-18.7 13.5-18.78 16.4-18.85 18.65-18.85L18.65-18.85Q19.65-18.85 20.03-18.65 20.4-18.45 20.4-17.6L20.4-17.6Q20.4-16.8 19.98-15.83 19.55-14.85 18.85-14.15L18.85-14.15Q18.55-13.85 18.2-13.68 17.85-13.5 17.25-13.55L17.25-13.55Q15.1-13.65 12.38-13.7 9.65-13.75 7.6-13.7L7.6-13.7Q7.4-12.55 7.3-11.6 7.2-10.65 7.2-9.9L7.2-9.9Q7.2-7.15 8.6-6.05 10-4.95 13.2-4.95L13.2-4.95Q15.15-4.95 16.98-5.3 18.8-5.65 20.7-6.6L20.7-6.6Q21.4-7 21.75-7L21.75-7Q22.3-7 22.83-6.23 23.35-5.45 23.35-4.55L23.35-4.55Q23.35-3.45 22.53-2.48 21.7-1.5 20.35-0.8L20.35-0.8Q18.8-0.1 16.65 0.28 14.5 0.65 12.2 0.65ZM32.45 0.65L32.45 0.65Q29.45 0.65 27.62-1.23 25.8-3.1 25.8-6.6L25.8-6.6Q25.8-9.1 26.77-11.58 27.75-14.05 29.6-16.05 31.45-18.05 34.05-19.25 36.65-20.45 39.9-20.45L39.9-20.45Q42.9-20.45 45.02-19.43 47.15-18.4 47.15-16.65L47.15-16.65Q47.15-16.2 47.05-15.48 46.95-14.75 46.8-14.3L46.8-14.3Q46.65-13.9 46.37-13.58 46.1-13.25 45.65-13.25L45.65-13.25Q45.45-13.25 44.9-13.4L44.9-13.4Q44.7-12.35 44.6-11.35 44.5-10.35 44.5-9.35L44.5-9.35Q44.5-7.45 45.07-5.98 45.65-4.5 47.35-4.15L47.35-4.15Q47.8-4.05 48.07-3.85 48.35-3.65 48.35-3L48.35-3Q48.35-2.45 48.07-1.6 47.8-0.75 47.02-0.08 46.25 0.6 44.8 0.6L44.8 0.6Q42.85 0.6 41.8-0.83 40.75-2.25 40.75-4.9L40.75-4.9Q39.4-2.45 37.32-0.9 35.25 0.65 32.45 0.65ZM34.05-4.55L34.05-4.55Q36.05-4.55 37.57-5.8 39.1-7.05 39.95-8.95L39.95-8.95Q40.5-10.15 40.8-11.58 41.1-13 41.2-14.4L41.2-14.4Q40.35-14.8 39.25-15.05 38.15-15.3 36.95-15.3L36.95-15.3Q33.9-15.3 31.92-13.5 29.95-11.7 29.95-9L29.95-9Q29.95-7 31.05-5.78 32.15-4.55 34.05-4.55ZM58.75 0.65L58.75 0.65Q55.7 0.65 54.37-1.38 53.05-3.4 53.05-6.6L53.05-6.6Q53.05-7.75 53.17-8.85 53.3-9.95 53.45-11.05L53.45-11.05Q53.59-12.15 53.75-13.2 53.9-14.25 54-15.2L54-15.2Q52.95-14.9 51.9-14.9L51.9-14.9Q50.8-14.9 50.8-15.8L50.8-15.8Q50.8-16.75 51.65-18.13 52.5-19.5 53.77-20.85 55.05-22.2 56.32-23.13 57.59-24.05 58.5-24.05L58.5-24.05Q59.59-24.05 59.59-22.15L59.59-22.15Q59.59-21.65 59.52-21.13 59.45-20.6 59.34-20.05L59.34-20.05Q60.3-20.25 61.27-20.4 62.25-20.55 63.15-20.55L63.15-20.55Q64.3-20.55 64.92-20.15 65.55-19.75 65.55-18.6L65.55-18.6Q65.55-17.4 64.97-16.2 64.4-15 63.7-15L63.7-15Q63.55-15 63.2-15.05 62.84-15.1 62.34-15.2L62.34-15.2Q61.7-15.35 60.7-15.5 59.7-15.65 58.3-15.65L58.3-15.65Q57.95-14.1 57.67-12.48 57.4-10.85 57.4-9.55L57.4-9.55Q57.4-6.65 58.84-5.6 60.3-4.55 63.05-4.55L63.05-4.55Q63.9-4.55 64.25-4.28 64.59-4 64.59-3.3L64.59-3.3Q64.59-1.65 62.9-0.5 61.2 0.65 58.75 0.65ZM77.84 0.5L77.84 0.5Q77.24 0.5 76.62 0.3 75.99 0.1 75.59-0.65 75.19-1.4 75.19-2.95L75.19-2.95Q75.19-4.05 75.37-5.65 75.54-7.25 75.84-9.1L75.84-9.1Q76.24-11.6 76.52-14.38 76.79-17.15 76.79-20.05L76.79-20.05Q76.79-22.4 76.57-24.13 76.34-25.85 75.99-26.8L75.99-26.8Q74.09-26.75 72.39-26.55 70.69-26.35 68.94-25.9L68.94-25.9Q68.49-25.85 68.17-25.78 67.84-25.7 67.54-25.7L67.54-25.7Q67.09-25.7 66.89-25.88 66.69-26.05 66.69-26.75L66.69-26.75Q66.69-27.6 66.94-28.53 67.19-29.45 67.69-30.1L67.69-30.1Q68.19-30.8 68.87-31.13 69.54-31.45 70.34-31.55L70.34-31.55Q71.59-31.7 73.54-31.83 75.49-31.95 77.82-32.05 80.14-32.15 82.39-32.15L82.39-32.15Q86.04-32.15 87.62-32.1 89.19-32.05 89.74-31.95L89.74-31.95Q90.44-31.85 90.72-31.53 90.99-31.2 90.99-30.5L90.99-30.5Q90.99-29.15 89.79-27.8L89.79-27.8Q89.29-27.2 88.74-26.88 88.19-26.55 87.29-26.6L87.29-26.6Q86.49-26.7 84.94-26.75 83.39-26.8 81.49-26.8L81.49-26.8Q81.44-25.05 81.22-22.73 80.99-20.4 80.69-18.05L80.69-18.05Q80.39-15.75 80.19-13.45 79.99-11.15 79.99-9.25L79.99-9.25Q79.99-7.5 80.32-6.18 80.64-4.85 81.64-3.9L81.64-3.9Q82.34-3.2 82.34-2.4L82.34-2.4Q82.34-1.3 81.09-0.4 79.84 0.5 77.84 0.5ZM96.09 0.65L96.09 0.65Q92.64 0.65 90.57-1.23 88.49-3.1 88.49-6.75L88.49-6.75Q88.49-8.45 88.97-10.05 89.44-11.65 90.24-13.05L90.24-13.05Q89.44-12.55 89.04-12.55L89.04-12.55Q88.44-12.55 88.22-13.23 87.99-13.9 87.99-14.55L87.99-14.55Q87.99-15.7 88.47-16.38 88.94-17.05 89.39-17.4L89.39-17.4Q90.44-18.3 92.69-19.38 94.94-20.45 98.09-20.45L98.09-20.45Q102.39-20.45 104.77-18.05 107.14-15.65 107.14-11.35L107.14-11.35Q107.14-8 105.74-5.28 104.34-2.55 101.87-0.95 99.39 0.65 96.09 0.65ZM97.64-4.45L97.64-4.45Q100.14-4.45 101.87-6.03 103.59-7.6 103.59-10.2L103.59-10.2Q103.59-12.9 101.84-14.05 100.09-15.2 97.79-15.2L97.79-15.2Q96.74-15.2 95.89-15 95.04-14.8 94.29-14.5L94.29-14.5Q93.59-13.5 93.04-12.25 92.49-11 92.49-9.5L92.49-9.5Q92.49-7 93.99-5.73 95.49-4.45 97.64-4.45ZM120.69 0.65L120.69 0.65Q117.29 0.65 115.44-0.1 113.59-0.85 112.89-2.2 112.19-3.55 112.19-5.4L112.19-5.4Q112.19-6.3 112.34-7.43 112.49-8.55 112.69-10L112.69-10Q113.59-15.5 113.59-19.75L113.59-19.75Q113.59-22.55 113.36-24.53 113.14-26.5 112.04-28.3L112.04-28.3Q111.84-28.6 111.69-28.93 111.54-29.25 111.54-29.45L111.54-29.45Q111.54-30.05 112.24-30.7 112.94-31.35 113.94-31.8 114.94-32.25 115.84-32.25L115.84-32.25Q117.54-32.25 117.96-30.9 118.39-29.55 118.39-27.05L118.39-27.05Q118.39-26.1 118.19-24.03 117.99-21.95 117.59-18.75L117.59-18.75Q117.19-15.65 116.99-13.4 116.79-11.15 116.79-9.8L116.79-9.8Q116.79-7.8 117.26-6.78 117.74-5.75 118.84-5.35L118.84-5.35Q119.94-4.95 121.94-4.95L121.94-4.95Q124.09-4.95 126.04-5.33 127.99-5.7 129.84-6.5L129.84-6.5Q130.09-6.6 130.29-6.65 130.49-6.7 130.64-6.7L130.64-6.7Q131.09-6.7 131.49-6.15 131.89-5.6 131.89-4.6L131.89-4.6Q131.89-2.4 129.49-1.15L129.49-1.15Q126.29 0.65 120.69 0.65ZM138.49-24.85L138.49-24.85Q137.09-24.9 136.24-25.7 135.39-26.5 135.39-27.95L135.39-27.95Q135.44-29.5 136.44-30.48 137.44-31.45 138.99-31.4L138.99-31.4Q140.44-31.35 141.26-30.55 142.09-29.75 142.04-28.3L142.04-28.3Q141.99-26.8 141.04-25.83 140.09-24.85 138.49-24.85ZM138.54 0.5L138.54 0.5Q137.04 0.5 136.19-0.33 135.34-1.15 135.34-3.15L135.34-3.15Q135.34-4.3 135.56-5.4 135.79-6.5 136.09-7.55L136.09-7.55Q136.44-8.65 136.66-9.8 136.89-10.95 136.89-12.25L136.89-12.25Q136.89-13.15 136.64-13.98 136.39-14.8 135.54-15.2L135.54-15.2Q134.89-15.55 134.41-15.93 133.94-16.3 133.94-16.9L133.94-16.9Q133.94-17.6 134.59-18.4 135.24-19.2 136.31-19.78 137.39-20.35 138.54-20.35L138.54-20.35Q139.79-20.35 140.36-19.7 140.94-19.05 141.14-18.05 141.34-17.05 141.34-16L141.34-16Q141.34-14.4 141.09-12.88 140.84-11.35 140.59-10.05L140.59-10.05Q140.39-9.1 140.29-8.3 140.19-7.5 140.19-6.8L140.19-6.8Q140.19-5.55 140.79-4.93 141.39-4.3 142.49-3.75L142.49-3.75Q142.94-3.5 142.94-3L142.94-3Q142.94-2.6 142.54-1.75 142.14-0.9 141.16-0.2 140.19 0.5 138.54 0.5ZM153.73 0.7L153.73 0.7Q152.38 0.7 151.41-0.13 150.43-0.95 150.23-3.2L150.23-3.2Q150.13-4.9 149.81-6.95 149.48-9 148.98-10.85 148.48-12.7 147.83-13.75L147.83-13.75Q147.48-14.3 147.06-14.58 146.63-14.85 145.78-14.95L145.78-14.95Q145.23-15 145.03-15.3 144.83-15.6 144.83-16.25L144.83-16.25Q144.83-18.3 145.96-19.28 147.08-20.25 148.53-20.25L148.53-20.25Q150.03-20.25 151.03-19.28 152.03-18.3 152.58-16.7 153.13-15.1 153.36-13.18 153.58-11.25 153.58-9.3L153.58-9.3Q153.58-8.5 153.56-7.63 153.53-6.75 153.53-6.15L153.53-6.15Q153.53-5.6 153.76-5.3 153.98-5 154.63-5L154.63-5Q155.43-5 156.48-5.48 157.53-5.95 158.56-6.85 159.58-7.75 160.26-8.97 160.93-10.2 160.93-11.7L160.93-11.7Q160.93-12.55 160.66-13.5 160.38-14.45 159.78-15.1L159.78-15.1Q159.18-15.75 158.91-16.13 158.63-16.5 158.63-17L158.63-17Q158.63-17.9 159.46-18.65 160.28-19.4 161.41-19.85 162.53-20.3 163.38-20.3L163.38-20.3Q164.83-20.3 165.23-19.1 165.63-17.9 165.63-16.45L165.63-16.45Q165.63-13.7 164.63-10.7 163.63-7.7 161.93-5.1 160.23-2.5 158.11-0.9 155.98 0.7 153.73 0.7ZM176.63 0.65L176.63 0.65Q172.83 0.65 170.71-1.53 168.58-3.7 168.58-7.6L168.58-7.6Q168.58-11.15 170.13-14.05 171.68-16.95 174.31-18.68 176.93-20.4 180.08-20.4L180.08-20.4Q183.08-20.4 184.88-18.93 186.68-17.45 186.68-15L186.68-15Q186.68-13.05 185.48-11.4 184.28-9.75 182.28-8.78 180.28-7.8 177.83-7.8L177.83-7.8Q174.83-7.8 172.93-9.15L172.93-9.15Q172.98-6.85 174.51-5.45 176.03-4.05 178.43-4.05L178.43-4.05Q179.88-4.05 181.41-4.58 182.93-5.1 184.03-6L184.03-6Q184.73-6.6 185.33-6.6L185.33-6.6Q185.83-6.6 186.16-6.28 186.48-5.95 186.48-5.45L186.48-5.45Q186.48-4.35 184.58-2.55L184.58-2.55Q181.23 0.65 176.63 0.65ZM177.38-11.1L177.38-11.1Q179.18-11.1 180.38-11.85 181.58-12.6 181.58-13.75L181.58-13.75Q181.58-14.7 180.78-15.23 179.98-15.75 178.58-15.75L178.58-15.75Q176.73-15.75 175.36-14.78 173.98-13.8 173.38-12.05L173.38-12.05Q174.08-11.6 175.18-11.35 176.28-11.1 177.38-11.1Z" opacity="1" transform="matrix(1,0,0,1,0,0)" fill="#fe5e30" class="wordmark-text-0" data-fill-palette-color="primary" id="text-0"></path></svg></g></svg></g><g transform="matrix(1,0,0,1,0,53.94403987344195)">
<svg viewBox="0 0 244.43135999999998 23.41761689713763" height="23.41761689713763" width="244.43135999999998"><g transform="matrix(1,0,0,1,0,0)"><svg width="244.43135999999998" viewBox="0.65 -36.3 382.51000000000005 36.65" height="23.41761689713763" data-palette-color="#fe5e30"><path d="M10.5 0.35L10.5 0.35Q7.15 0.35 4.95-0.88 2.75-2.1 1.7-4.08 0.65-6.05 0.65-8.35L0.65-8.35Q0.65-10.4 1.45-12.4 2.25-14.4 3.83-16.05 5.4-17.7 7.65-18.65L7.65-18.65Q5.6-19.95 4.58-21.78 3.55-23.6 3.55-25.6L3.55-25.6Q3.55-28.2 5.25-30.65 6.95-33.1 10.2-34.7 13.45-36.3 18-36.3L18-36.3Q21.15-36.3 23.03-35.52 24.9-34.75 25.75-33.52 26.6-32.3 26.6-30.9L26.6-30.9Q26.6-29.3 25.6-27.73 24.6-26.15 22.73-25.15 20.85-24.15 18.15-24.15L18.15-24.15Q18.95-26.5 18.95-28.05L18.95-28.05Q18.95-29.6 18.3-30.3 17.65-31 16.7-31L16.7-31Q15.7-31 14.58-30.25 13.45-29.5 12.7-28.15 11.95-26.8 11.95-25L11.95-25Q11.95-24.05 12.25-22.88 12.55-21.7 13.2-20.55L13.2-20.55Q14.3-21.25 15.23-21.58 16.15-21.9 16.9-21.9L16.9-21.9Q18.45-21.9 19.15-20.83 19.85-19.75 19.85-18.4L19.85-18.4Q19.85-16.8 18.88-15.35 17.9-13.9 16-13.9L16-13.9Q14.25-13.9 11.9-15.55L11.9-15.55Q9.15-13.6 9.15-10.95L9.15-10.95Q9.15-8.9 10.43-7.85 11.7-6.8 13.7-6.8L13.7-6.8Q16.25-6.8 19.4-8.58 22.55-10.35 25-13.9L25-13.9 25.4-13.65Q25.3-10.15 23.98-7.53 22.65-4.9 20.53-3.15 18.4-1.4 15.8-0.53 13.2 0.35 10.5 0.35ZM46.55 0.25L46.55 0.25Q44.8 0.25 43.5-0.9 42.2-2.05 42.2-4.65L42.2-4.65Q42.2-4.9 42.2-5.15 42.2-5.4 42.25-5.65L42.25-5.65Q40.75-2.65 38.87-1.23 37 0.2 35.1 0.2L35.1 0.2Q33.35 0.2 31.8-1.03 30.25-2.25 29.3-4.65 28.35-7.05 28.35-10.45L28.35-10.45Q28.35-13.95 29.32-16.7 30.3-19.45 31.9-21.35 33.5-23.25 35.4-24.23 37.3-25.2 39.1-25.2L39.1-25.2Q41.1-25.2 42.7-23.98 44.3-22.75 44.9-20.1L44.9-20.1Q45.05-20.95 45.12-21.65 45.2-22.35 45.2-22.6L45.2-22.6Q45.25-23.95 46.57-24.6 47.9-25.25 49.5-25.25L49.5-25.25Q50.9-25.25 52.15-24.7 53.4-24.15 53.85-22.85L53.85-22.85 53.95-22.55Q53.35-21.2 52.75-19.3 52.15-17.4 51.65-15.33 51.15-13.25 50.85-11.28 50.55-9.3 50.55-7.8L50.55-7.8Q50.55-6.15 50.9-5.53 51.25-4.9 51.75-4.9L51.75-4.9Q52.6-4.9 53.3-6.1L53.3-6.1 53.7-5.9Q53.7-4.2 52.6-2.8 51.5-1.4 49.85-0.58 48.2 0.25 46.55 0.25ZM38.4-6.1L38.4-6.1Q39.7-6.1 41.27-8.43 42.85-10.75 44-15.1L44-15.1Q44.1-15.55 44.2-15.98 44.3-16.4 44.35-16.8L44.35-16.8Q43.55-18.65 42.67-19.43 41.8-20.2 40.95-20.2L40.95-20.2Q39.7-20.2 38.62-18.88 37.55-17.55 36.87-15.55 36.2-13.55 36.2-11.55L36.2-11.55Q36.2-8.8 36.82-7.45 37.45-6.1 38.4-6.1ZM63.65 0.2L63.65 0.2Q62.05 0.2 60.62-0.53 59.2-1.25 58.32-2.8 57.45-4.35 57.45-6.75L57.45-6.75Q57.45-8.05 57.7-10.15 57.95-12.25 58.37-14.75 58.8-17.25 59.25-19.75L59.25-19.75Q58.25-19.7 57.32-19.55 56.4-19.4 55.5-19.2L55.5-19.2 55.4-19.55Q56.4-20.75 57.5-21.6 58.59-22.45 59.8-23L59.8-23Q60.45-26.3 60.9-28.73 61.34-31.15 61.34-31.6L61.34-31.6Q61.34-32.45 62.67-33 64-33.55 65.65-33.55L65.65-33.55Q67.09-33.55 68.37-33 69.65-32.45 70.09-31.15L70.09-31.15Q69.8-30.85 69.25-28.93 68.7-27 68.09-24.25L68.09-24.25Q69.05-24.2 70.05-24.15 71.05-24.1 72.09-24L72.09-24Q72.2-23.7 72.25-23.35 72.3-23 72.3-22.6L72.3-22.6Q72.3-21.85 72.07-20.98 71.84-20.1 71.55-19.4L71.55-19.4Q70.34-19.5 69.3-19.63 68.25-19.75 67.25-19.8L67.25-19.8Q66.84-17.65 66.52-15.5 66.2-13.35 66.02-11.6 65.84-9.85 65.84-8.85L65.84-8.85Q65.84-6.75 66.62-6.05 67.4-5.35 68.5-5.35L68.5-5.35Q69.5-5.35 70.3-5.75 71.09-6.15 71.45-6.7L71.45-6.7 71.95-6.55Q71.65-4.5 70.34-2.98 69.05-1.45 67.25-0.63 65.45 0.2 63.65 0.2ZM89.04 0.15L89.04 0.15Q87.19 0.15 85.69-1.33 84.19-2.8 84.19-5.45L84.19-5.45Q84.19-6.75 84.54-8.4 84.89-10.05 85.32-11.75 85.74-13.45 86.09-14.95 86.44-16.45 86.44-17.4L86.44-17.4Q86.44-18.4 86.04-18.98 85.64-19.55 84.99-19.55L84.99-19.55Q84.14-19.55 83.14-18.55L83.14-18.55 82.84-18.75Q82.79-19.55 83.19-20.65 83.59-21.75 84.42-22.78 85.24-23.8 86.54-24.5 87.84-25.2 89.64-25.2L89.64-25.2Q92.29-25.2 93.57-23.68 94.84-22.15 94.84-19.95L94.84-19.95Q94.84-19.15 94.69-18.4L94.69-18.4Q95.74-19.95 97.29-21.53 98.84-23.1 100.72-24.15 102.59-25.2 104.59-25.2L104.59-25.2Q106.94-25.2 107.79-23.7 108.64-22.2 108.64-19.95L108.64-19.95Q108.64-17.85 108.19-15.45 107.74-13.05 107.29-10.83 106.84-8.6 106.84-7.1L106.84-7.1Q106.84-5.1 107.99-5.1L107.99-5.1Q108.59-5.1 109.04-5.48 109.49-5.85 109.64-6.2L109.64-6.2 109.99-6.05Q109.99-4.2 108.97-2.8 107.94-1.4 106.39-0.63 104.84 0.15 103.24 0.15L103.24 0.15Q101.29 0.15 99.79-1.2 98.29-2.55 98.29-5.6L98.29-5.6Q98.29-7.4 98.77-9.5 99.24-11.6 99.69-13.55 100.14-15.5 100.14-16.75L100.14-16.75Q100.14-17.5 99.87-17.93 99.59-18.35 98.89-18.35L98.89-18.35Q97.74-18.35 96.37-17.3 94.99-16.25 94.02-14.5 93.04-12.75 93.04-10.65L93.04-10.65Q93.04-9.3 93.37-8.05 93.69-6.8 93.69-5.35L93.69-5.35Q93.69-2.65 92.29-1.25 90.89 0.15 89.04 0.15ZM123.54 0.35L123.54 0.35Q119.79 0.35 117.34-1.15 114.89-2.65 113.71-5.13 112.54-7.6 112.54-10.4L112.54-10.4Q112.54-13.05 113.51-15.7 114.49-18.35 116.36-20.53 118.24-22.7 120.94-24.03 123.64-25.35 127.14-25.35L127.14-25.35Q130.89-25.35 133.31-23.83 135.74-22.3 136.91-19.8 138.09-17.3 138.09-14.45L138.09-14.45Q138.09-11.85 137.14-9.22 136.19-6.6 134.31-4.42 132.44-2.25 129.74-0.95 127.04 0.35 123.54 0.35ZM124.89-3.9L124.89-3.9Q126.24-3.9 127.14-5.3 128.04-6.7 128.49-8.88 128.94-11.05 128.94-13.3L128.94-13.3Q128.94-15.3 128.56-17.07 128.19-18.85 127.44-19.98 126.69-21.1 125.49-21.1L125.49-21.1Q124.19-21.1 123.26-19.7 122.34-18.3 121.89-16.15 121.44-14 121.44-11.7L121.44-11.7Q121.44-9.7 121.81-7.93 122.19-6.15 122.94-5.03 123.69-3.9 124.89-3.9ZM148.04 0.2L148.04 0.2Q145.44 0.2 143.81-1.33 142.19-2.85 142.19-6.05L142.19-6.05Q142.19-7.65 142.56-9.43 142.94-11.2 143.41-12.93 143.89-14.65 144.24-16.05 144.59-17.45 144.59-18.3L144.59-18.3Q144.59-19.15 144.24-19.53 143.89-19.9 143.39-19.9L143.39-19.9Q142.89-19.9 142.39-19.58 141.89-19.25 141.54-18.6L141.54-18.6 141.14-18.75Q141.24-20.8 142.29-22.25 143.34-23.7 144.91-24.45 146.49-25.2 148.09-25.2L148.09-25.2Q149.39-25.2 150.59-24.68 151.79-24.15 152.51-23.08 153.24-22 153.19-20.35L153.19-20.35Q153.14-19.25 152.79-17.65 152.44-16.05 151.96-14.23 151.49-12.4 151.14-10.7 150.79-9 150.79-7.7L150.79-7.7Q150.79-6.6 151.11-5.95 151.44-5.3 152.24-5.3L152.24-5.3Q153.09-5.3 154.49-6.2 155.89-7.1 157.29-8.8L157.29-8.8Q156.99-11.6 156.99-13.75L156.99-13.75Q156.99-19.25 158.61-21.7 160.24-24.15 162.69-24.15L162.69-24.15Q164.49-24.15 165.14-22.95 165.79-21.75 165.79-19.75L165.79-19.75Q165.79-16.8 164.79-14.2 163.79-11.6 162.44-10.05L162.44-10.05Q162.54-7.8 163.36-6.55 164.19-5.3 165.34-5.3L165.34-5.3Q166.49-5.3 167.71-6.6 168.94-7.9 169.84-10.6 170.74-13.3 170.89-17.45L170.89-17.45Q170.94-20.8 170.44-22.35L170.44-22.35 170.44-22.6Q171.14-23.75 172.66-24.58 174.19-25.4 175.74-25.4L175.74-25.4Q176.84-25.4 177.76-24.78 178.69-24.15 179.24-22.48 179.79-20.8 179.64-17.65L179.64-17.65Q179.49-13.25 178.19-9.93 176.89-6.6 174.86-4.35 172.84-2.1 170.49-0.95 168.14 0.2 165.84 0.2L165.84 0.2Q163.24 0.2 161.09-1.23 158.94-2.65 157.84-5.25L157.84-5.25Q155.59-2.9 153.21-1.35 150.84 0.2 148.04 0.2ZM201.83 0.35L201.83 0.35Q198.08 0.35 195.63-1.15 193.18-2.65 192-5.13 190.83-7.6 190.83-10.4L190.83-10.4Q190.83-13.05 191.81-15.7 192.78-18.35 194.66-20.53 196.53-22.7 199.23-24.03 201.93-25.35 205.43-25.35L205.43-25.35Q209.18-25.35 211.61-23.83 214.03-22.3 215.21-19.8 216.38-17.3 216.38-14.45L216.38-14.45Q216.38-11.85 215.43-9.22 214.48-6.6 212.61-4.42 210.73-2.25 208.03-0.95 205.33 0.35 201.83 0.35ZM203.18-3.9L203.18-3.9Q204.53-3.9 205.43-5.3 206.33-6.7 206.78-8.88 207.23-11.05 207.23-13.3L207.23-13.3Q207.23-15.3 206.86-17.07 206.48-18.85 205.73-19.98 204.98-21.1 203.78-21.1L203.78-21.1Q202.48-21.1 201.56-19.7 200.63-18.3 200.18-16.15 199.73-14 199.73-11.7L199.73-11.7Q199.73-9.7 200.11-7.93 200.48-6.15 201.23-5.03 201.98-3.9 203.18-3.9ZM225.13 0.2L225.13 0.2Q223.33 0.2 221.93-1.28 220.53-2.75 220.53-5.45L220.53-5.45Q220.53-6.75 220.83-8.4 221.13-10.05 221.53-11.78 221.93-13.5 222.23-15.03 222.53-16.55 222.53-17.55L222.53-17.55Q222.53-18.6 222.15-19.23 221.78-19.85 221.18-19.85L221.18-19.85Q220.23-19.85 219.23-18.55L219.23-18.55 218.93-18.75Q218.88-19.55 219.28-20.65 219.68-21.75 220.53-22.78 221.38-23.8 222.7-24.5 224.03-25.2 225.83-25.2L225.83-25.2Q228.48-25.2 229.68-23.68 230.88-22.15 230.88-20L230.88-20Q230.88-19.65 230.85-19.28 230.83-18.9 230.78-18.55L230.78-18.55Q232.58-21.8 234.55-23.53 236.53-25.25 238.23-25.25L238.23-25.25Q239.83-25.25 240.58-24 241.33-22.75 241.33-21L241.33-21Q241.33-19.4 240.7-17.75 240.08-16.1 238.85-15.03 237.63-13.95 235.88-14L235.88-14 235.68-14.1Q235.63-15.4 234.83-16.15 234.03-16.9 233.03-16.9L233.03-16.9Q231.68-16.9 230.5-15.55 229.33-14.2 229.33-11.65L229.33-11.65Q229.33-10.1 229.68-8.3 230.03-6.5 230.03-5.25L230.03-5.25Q230.03-3.75 229.33-2.5 228.63-1.25 227.53-0.53 226.43 0.2 225.13 0.2ZM257.67 0.15L257.67 0.15Q255.82 0.15 254.32-1.33 252.82-2.8 252.82-5.45L252.82-5.45Q252.82-6.75 253.17-8.4 253.52-10.05 253.95-11.75 254.37-13.45 254.72-14.95 255.07-16.45 255.07-17.4L255.07-17.4Q255.07-18.4 254.67-18.98 254.27-19.55 253.62-19.55L253.62-19.55Q252.77-19.55 251.77-18.55L251.77-18.55 251.47-18.75Q251.42-19.55 251.82-20.65 252.22-21.75 253.05-22.78 253.87-23.8 255.17-24.5 256.47-25.2 258.27-25.2L258.27-25.2Q260.92-25.2 262.2-23.68 263.47-22.15 263.47-19.95L263.47-19.95Q263.47-19.15 263.32-18.4L263.32-18.4Q264.37-19.95 265.92-21.53 267.47-23.1 269.35-24.15 271.22-25.2 273.22-25.2L273.22-25.2Q275.57-25.2 276.42-23.7 277.27-22.2 277.27-19.95L277.27-19.95Q277.27-17.85 276.82-15.45 276.37-13.05 275.92-10.83 275.47-8.6 275.47-7.1L275.47-7.1Q275.47-5.1 276.62-5.1L276.62-5.1Q277.22-5.1 277.67-5.48 278.12-5.85 278.27-6.2L278.27-6.2 278.62-6.05Q278.62-4.2 277.6-2.8 276.57-1.4 275.02-0.63 273.47 0.15 271.87 0.15L271.87 0.15Q269.92 0.15 268.42-1.2 266.92-2.55 266.92-5.6L266.92-5.6Q266.92-7.4 267.4-9.5 267.87-11.6 268.32-13.55 268.77-15.5 268.77-16.75L268.77-16.75Q268.77-17.5 268.5-17.93 268.22-18.35 267.52-18.35L267.52-18.35Q266.37-18.35 265-17.3 263.62-16.25 262.65-14.5 261.67-12.75 261.67-10.65L261.67-10.65Q261.67-9.3 262-8.05 262.32-6.8 262.32-5.35L262.32-5.35Q262.32-2.65 260.92-1.25 259.52 0.15 257.67 0.15ZM292.02 0.35L292.02 0.35Q288.37 0.35 285.97-1.13 283.57-2.6 282.37-5.03 281.17-7.45 281.17-10.25L281.17-10.25Q281.17-12.9 282.2-15.58 283.22-18.25 285.2-20.45 287.17-22.65 290-24 292.82-25.35 296.37-25.35L296.37-25.35Q300.77-25.35 302.8-23.38 304.82-21.4 304.82-18.6L304.82-18.6Q304.82-16.2 303.55-14.18 302.27-12.15 300.17-10.93 298.07-9.7 295.57-9.7L295.57-9.7Q294.27-9.7 292.92-10.1 291.57-10.5 290.27-11.35L290.27-11.35Q290.52-8.25 292.07-6.85 293.62-5.45 295.77-5.45L295.77-5.45Q297.27-5.45 298.77-6.03 300.27-6.6 301.55-7.53 302.82-8.45 303.52-9.5L303.52-9.5 303.87-9.25Q303.87-6.65 302.8-4.83 301.72-3 299.97-1.85 298.22-0.7 296.15-0.18 294.07 0.35 292.02 0.35ZM293.17-13.15L293.17-13.15Q294.77-13.15 295.77-14.08 296.77-15 297.27-16.25 297.77-17.5 297.77-18.45L297.77-18.45Q297.77-19.6 297.12-20.38 296.47-21.15 295.32-21.15L295.32-21.15Q294.42-21.15 293.35-20.5 292.27-19.85 291.42-18.28 290.57-16.7 290.32-13.9L290.32-13.9Q291.92-13.15 293.17-13.15ZM314.77 0.2L314.77 0.2Q311.87 0.2 310.17-1.33 308.47-2.85 308.47-6.05L308.47-6.05Q308.47-7.9 308.94-10 309.42-12.1 309.87-13.75L309.87-13.75Q310.32-15.35 310.59-16.55 310.87-17.75 310.87-18.4L310.87-18.4Q310.87-19.2 310.52-19.55 310.17-19.9 309.67-19.9L309.67-19.9Q308.47-19.9 307.67-18.75L307.67-18.75 307.47-18.95Q307.52-20.65 308.57-22.08 309.62-23.5 311.27-24.35 312.92-25.2 314.62-25.2L314.62-25.2Q316.52-25.2 317.87-24.08 319.22-22.95 319.12-20.55L319.12-20.55Q319.07-19.5 318.74-17.9 318.42-16.3 317.87-14.1L317.87-14.1Q317.52-12.7 317.14-10.93 316.77-9.15 316.77-7.7L316.77-7.7Q316.77-6.6 317.12-5.95 317.47-5.3 318.27-5.3L318.27-5.3Q319.32-5.3 320.59-6.48 321.87-7.65 322.82-10.33 323.77-13 323.92-17.45L323.92-17.45Q324.07-20.85 323.47-22.4L323.47-22.4 323.47-22.65Q323.92-23.35 324.84-24 325.77-24.65 326.92-25.08 328.07-25.5 329.07-25.5L329.07-25.5Q330.67-25.5 331.79-23.95 332.92-22.4 332.77-18.55L332.77-18.55Q332.67-14.85 331.44-11.85 330.22-8.85 328.27-6.6 326.32-4.35 323.99-2.85 321.67-1.35 319.27-0.58 316.87 0.2 314.77 0.2ZM345.82 0.35L345.82 0.35Q342.17 0.35 339.77-1.13 337.37-2.6 336.17-5.03 334.97-7.45 334.97-10.25L334.97-10.25Q334.97-12.9 335.99-15.58 337.02-18.25 338.99-20.45 340.97-22.65 343.79-24 346.62-25.35 350.17-25.35L350.17-25.35Q354.57-25.35 356.59-23.38 358.62-21.4 358.62-18.6L358.62-18.6Q358.62-16.2 357.34-14.18 356.07-12.15 353.97-10.93 351.87-9.7 349.37-9.7L349.37-9.7Q348.07-9.7 346.72-10.1 345.37-10.5 344.07-11.35L344.07-11.35Q344.32-8.25 345.87-6.85 347.42-5.45 349.57-5.45L349.57-5.45Q351.07-5.45 352.57-6.03 354.07-6.6 355.34-7.53 356.62-8.45 357.32-9.5L357.32-9.5 357.67-9.25Q357.67-6.65 356.59-4.83 355.52-3 353.77-1.85 352.02-0.7 349.94-0.18 347.87 0.35 345.82 0.35ZM346.97-13.15L346.97-13.15Q348.57-13.15 349.57-14.08 350.57-15 351.07-16.25 351.57-17.5 351.57-18.45L351.57-18.45Q351.57-19.6 350.92-20.38 350.27-21.15 349.12-21.15L349.12-21.15Q348.22-21.15 347.14-20.5 346.07-19.85 345.22-18.28 344.37-16.7 344.12-13.9L344.12-13.9Q345.72-13.15 346.97-13.15ZM366.96 0.2L366.96 0.2Q365.16 0.2 363.76-1.28 362.36-2.75 362.36-5.45L362.36-5.45Q362.36-6.75 362.66-8.4 362.96-10.05 363.36-11.78 363.76-13.5 364.06-15.03 364.36-16.55 364.36-17.55L364.36-17.55Q364.36-18.6 363.99-19.23 363.61-19.85 363.01-19.85L363.01-19.85Q362.06-19.85 361.06-18.55L361.06-18.55 360.76-18.75Q360.71-19.55 361.11-20.65 361.51-21.75 362.36-22.78 363.21-23.8 364.54-24.5 365.86-25.2 367.66-25.2L367.66-25.2Q370.31-25.2 371.51-23.68 372.71-22.15 372.71-20L372.71-20Q372.71-19.65 372.69-19.28 372.66-18.9 372.61-18.55L372.61-18.55Q374.41-21.8 376.39-23.53 378.36-25.25 380.06-25.25L380.06-25.25Q381.66-25.25 382.41-24 383.16-22.75 383.16-21L383.16-21Q383.16-19.4 382.54-17.75 381.91-16.1 380.69-15.03 379.46-13.95 377.71-14L377.71-14 377.51-14.1Q377.46-15.4 376.66-16.15 375.86-16.9 374.86-16.9L374.86-16.9Q373.51-16.9 372.34-15.55 371.16-14.2 371.16-11.65L371.16-11.65Q371.16-10.1 371.51-8.3 371.86-6.5 371.86-5.25L371.86-5.25Q371.86-3.75 371.16-2.5 370.46-1.25 369.36-0.53 368.26 0.2 366.96 0.2Z" opacity="1" transform="matrix(1,0,0,1,0,0)" fill="#fe5e30" class="slogan-text-1" data-fill-palette-color="secondary" id="text-1"></path></svg></g></svg></g></svg></g></svg></g></svg></g></svg></g></svg></g><g><path d="M0 123.6c0-68.262 55.338-123.6 123.6-123.6 52.827 0 97.914 33.142 115.603 79.768l-2.108 0c-17.59-45.516-61.772-77.8-113.495-77.8-67.176 0-121.632 54.457-121.632 121.632 0 67.176 54.457 121.632 121.632 121.632 51.722 0 95.905-32.284 113.495-77.8l2.108 0c-17.688 46.626-62.775 79.768-115.603 79.768-68.262 0-123.6-55.338-123.6-123.6z" fill="#fe5e30" stroke="transparent" data-fill-palette-color="tertiary"></path></g></svg></g><defs></defs></svg><rect width="395.52" height="247.2" fill="none" stroke="none" visibility="hidden"></rect></g></svg></g></svg>